<svg height='300px' width='300px'  fill="#0fcf10" xmlns="http://www.w3.org/2000/svg" xmlns:xlink="http://www.w3.org/1999/xlink" version="1.1" x="0px" y="0px" viewBox="0 0 48 48" enable-background="new 0 0 48 48" xml:space="preserve"><path d="M20.397,13.757l3.93-1.442c0.26-0.095,0.393-0.382,0.297-0.642c-0.072-0.2-0.072-0.419,0-0.619  c0.084-0.227,0.25-0.405,0.467-0.506c0.218-0.102,0.461-0.111,0.687-0.028c0.465,0.171,0.704,0.688,0.534,1.153  c-0.096,0.259,0.038,0.546,0.297,0.642l12.281,4.508l-0.356,2.307H18.276c-0.276,0-0.5,0.224-0.5,0.5c0,0.275,0.224,0.5,0.5,0.5  H38.96c0.248,0,0.457-0.181,0.494-0.425l0.484-3.134c0.036-0.234-0.098-0.463-0.322-0.545l-12.258-4.5  c0.072-0.832-0.416-1.643-1.236-1.945c-0.476-0.175-0.992-0.152-1.451,0.061c-0.461,0.213-0.811,0.592-0.984,1.067  c-0.096,0.263-0.133,0.541-0.109,0.816l-3.525,1.294c-0.258,0.095-0.392,0.382-0.297,0.643  C19.851,13.719,20.138,13.852,20.397,13.757z"></path><path d="M23.147,34.39h-0.025c-0.277,0-0.5,0.225-0.5,0.5s0.223,0.5,0.5,0.5h4.692c0.276,0,0.5-0.225,0.5-0.5s-0.224-0.5-0.5-0.5  h-0.026c-0.27-4.145-0.27-8.338,0-12.483h0.026c0.276,0,0.5-0.224,0.5-0.5c0-0.275-0.224-0.5-0.5-0.5h-4.692  c-0.277,0-0.5,0.225-0.5,0.5c0,0.276,0.223,0.5,0.5,0.5h0.025C23.417,26.052,23.417,30.245,23.147,34.39z M26.788,21.906  c-0.269,4.146-0.269,8.339,0,12.483h-2.64c0.269-4.146,0.269-8.337,0-12.483H26.788z"></path><path d="M33.147,34.39h-0.025c-0.277,0-0.5,0.225-0.5,0.5s0.223,0.5,0.5,0.5h4.692c0.276,0,0.5-0.225,0.5-0.5s-0.224-0.5-0.5-0.5  h-0.026c-0.27-4.145-0.27-8.338,0-12.483h0.026c0.276,0,0.5-0.224,0.5-0.5c0-0.275-0.224-0.5-0.5-0.5h-4.692  c-0.277,0-0.5,0.225-0.5,0.5c0,0.276,0.223,0.5,0.5,0.5h0.025C33.417,26.052,33.417,30.245,33.147,34.39z M36.788,21.906  c-0.269,4.146-0.269,8.339,0,12.483h-2.64c0.269-4.146,0.269-8.337,0-12.483H36.788z"></path><path d="M13.121,34.39c-0.276,0-0.5,0.225-0.5,0.5s0.224,0.5,0.5,0.5h4.693c0.275,0,0.5-0.225,0.5-0.5s-0.225-0.5-0.5-0.5h-0.026  c-0.27-4.145-0.27-8.338,0-12.483h0.026c0.275,0,0.5-0.224,0.5-0.5c0-0.275-0.225-0.5-0.5-0.5h-1.351c-0.275,0-0.5,0.225-0.5,0.5  c0,0.276,0.225,0.5,0.5,0.5h0.323c-0.268,4.146-0.268,8.339,0,12.483h-2.638c0.248-3.852,0.272-7.748,0.06-11.596  c-0.016-0.275-0.241-0.494-0.526-0.472c-0.275,0.016-0.487,0.251-0.472,0.527c0.211,3.829,0.188,7.709-0.063,11.541L13.121,34.39  L13.121,34.39z"></path><path d="M8.604,37.964c0,0.275,0.224,0.5,0.5,0.5h32.727c0.276,0,0.5-0.225,0.5-0.5c0-0.276-0.224-0.5-0.5-0.5H9.104  C8.827,37.464,8.604,37.688,8.604,37.964z"></path><path d="M44.531,41.009H6.403c-0.276,0-0.5,0.225-0.5,0.5s0.224,0.5,0.5,0.5h38.128c0.276,0,0.5-0.225,0.5-0.5  S44.809,41.009,44.531,41.009z"></path><path d="M10.856,21.766c4.349,0,7.887-3.538,7.887-7.887c0-4.35-3.538-7.888-7.887-7.888c-4.35,0-7.888,3.538-7.888,7.888  C2.969,18.228,6.507,21.766,10.856,21.766z M10.856,6.991c3.798,0,6.887,3.089,6.887,6.888c0,3.798-3.089,6.887-6.887,6.887  s-6.888-3.089-6.888-6.887C3.969,10.08,7.059,6.991,10.856,6.991z"></path><path d="M6.456,14.379h3.9v3.9c0,0.276,0.224,0.5,0.5,0.5c0.275,0,0.5-0.224,0.5-0.5v-3.9h3.9c0.276,0,0.5-0.225,0.5-0.5  c0-0.276-0.224-0.5-0.5-0.5h-3.9v-3.9c0-0.276-0.225-0.5-0.5-0.5c-0.276,0-0.5,0.224-0.5,0.5v3.9h-3.9c-0.276,0-0.5,0.224-0.5,0.5  C5.956,14.154,6.179,14.379,6.456,14.379z"></path></svg>