<svg height='300px' width='300px'  fill="#0fcf10" xmlns="http://www.w3.org/2000/svg" viewBox="0 0 64 64" x="0px" y="0px"><title>payment, online, internet, credit card, modern</title><g data-name="Layer 2"><path d="M53.57,32.55a1,1,0,0,0,1.36-.84,5,5,0,0,0-5.22-5.59,1,1,0,0,0-.94,1.31h0a1,1,0,0,0,1,.69,3,3,0,0,1,2.41,1,3,3,0,0,1,.73,2.3A1,1,0,0,0,53.57,32.55Z"></path><path d="M58.58,32.56h0a1,1,0,0,0,1.34-.7A8.89,8.89,0,0,0,49.69,21a1,1,0,0,0-.77,1.29h0a1,1,0,0,0,1.11.68A6.9,6.9,0,0,1,58,31.4,1,1,0,0,0,58.58,32.56Z"></path><path d="M10.72,60h14A7.06,7.06,0,0,0,30,57.61a1,1,0,0,0-.24-1.48h0a1,1,0,0,0-1.29.2A5.08,5.08,0,0,1,24.68,58h-14a5.1,5.1,0,0,1-5.1-5.11V14.59a5.1,5.1,0,0,1,5.1-5.11H11l1,1.84a2.52,2.52,0,0,0,2.22,1.31h7a2.51,2.51,0,0,0,2.22-1.32l1-1.83h.25a5.1,5.1,0,0,1,5.1,5.11V28.16a1,1,0,0,0,2,0V14.59A7.1,7.1,0,0,0,25.5,7.53l0,0H9.87l0,0a7.1,7.1,0,0,0-6.28,7.06V52.92A7.1,7.1,0,0,0,10.72,60Z"></path><path d="M21.66,53.09h25.1a3.32,3.32,0,0,0,3.32-3.32v-15a3.32,3.32,0,0,0-3.32-3.32H21.66a3.32,3.32,0,0,0-3.32,3.32v15A3.32,3.32,0,0,0,21.66,53.09Zm25.1-2H21.66a1.33,1.33,0,0,1-1.32-1.32V47.14H48.08v2.63A1.33,1.33,0,0,1,46.76,51.09ZM39,39.64h0a1,1,0,0,1,1-1h2.56a1,1,0,0,1,1,1h0a1,1,0,0,1-1,1H40A1,1,0,0,1,39,39.64Z"></path><path d="M23.62,19.88a1,1,0,0,0-1.42,0l-6.28,6.28a.22.22,0,0,1-.32,0l-2.4-2.4a1,1,0,0,0-1.42,1.41l2.41,2.4a2.22,2.22,0,0,0,3.14,0l6.29-6.28A1,1,0,0,0,23.62,19.88Z"></path></g></svg>