<?xml version="1.0" standalone="no"?>
<!DOCTYPE svg PUBLIC "-//W3C//DTD SVG 20010904//EN"
 "http://www.w3.org/TR/2001/REC-SVG-20010904/DTD/svg10.dtd">
<svg version="1.0" xmlns="http://www.w3.org/2000/svg"
 width="512.000000pt" height="512.000000pt" viewBox="0 0 512.000000 512.000000"
 preserveAspectRatio="xMidYMid meet">
<metadata>
Created by potrace 1.16, written by Peter Selinger 2001-2019
</metadata>
<g transform="translate(0.000000,512.000000) scale(0.100000,-0.100000)"
fill="#0fcf10" stroke="none">
<path d="M1181 5087 c220 -167 1842 -1369 1853 -1373 9 -4 373 260 953 691
516 384 942 701 948 706 5 5 -793 9 -1894 9 l-1904 0 44 -33z"/>
<path d="M960 4136 c0 -416 3 -756 8 -756 4 0 43 12 87 25 310 97 679 104
1006 21 596 -151 1088 -593 1304 -1171 32 -85 56 -168 89 -308 l6 -27 778 2
c761 3 778 3 812 23 19 12 42 34 52 51 17 29 18 103 16 1461 l-3 1429 -997
-741 c-549 -408 -1009 -747 -1023 -753 -37 -17 -75 -15 -115 6 -19 10 -458
333 -975 718 -517 384 -964 716 -992 737 l-53 39 0 -756z"/>
<path d="M1510 3193 c-724 -40 -1327 -556 -1480 -1268 -34 -154 -39 -431 -11
-592 56 -332 210 -630 447 -867 237 -237 535 -391 867 -447 161 -28 438 -23
592 11 600 129 1073 583 1220 1170 36 147 47 242 47 405 -1 171 -18 296 -63
445 -195 658 -782 1115 -1469 1142 -52 3 -120 3 -150 1z m638 -1153 c64 -39
91 -125 58 -188 -8 -15 -169 -181 -358 -368 -365 -364 -365 -364 -446 -349
-31 5 -68 38 -229 198 -164 165 -192 197 -199 230 -19 107 67 192 174 172 28
-5 62 -32 162 -130 l126 -124 274 274 c151 151 288 281 305 290 42 20 94 19
133 -5z"/>
</g>
</svg>
