<?xml version="1.0" standalone="no"?>
<!DOCTYPE svg PUBLIC "-//W3C//DTD SVG 20010904//EN"
 "http://www.w3.org/TR/2001/REC-SVG-20010904/DTD/svg10.dtd">
<svg version="1.0" xmlns="http://www.w3.org/2000/svg"
 width="512.000000pt" height="512.000000pt" viewBox="0 0 512.000000 512.000000"
 preserveAspectRatio="xMidYMid meet">
<metadata>
Created by potrace 1.16, written by Peter Selinger 2001-2019
</metadata>
<g transform="translate(0.000000,512.000000) scale(0.100000,-0.100000)"
fill="#0fcf10" stroke="none">
<path d="M294 4491 c-59 -27 -109 -75 -138 -133 l-26 -52 0 -1746 0 -1746 26
-52 c29 -58 79 -106 138 -133 39 -18 124 -19 2267 -19 l2225 0 52 26 c58 29
106 79 133 138 18 39 19 111 19 1786 0 1675 -1 1747 -19 1786 -27 59 -75 109
-133 138 l-52 26 -2225 0 c-2143 0 -2228 -1 -2267 -19z m4573 -61 c56 -34 63
-60 63 -240 l0 -160 -2370 0 -2370 0 0 160 c0 180 7 206 63 240 31 20 68 20
2307 20 2239 0 2276 0 2307 -20z m61 -2063 c-3 -1512 -4 -1604 -21 -1630 -9
-15 -29 -35 -44 -44 -26 -17 -145 -18 -2303 -18 -2158 0 -2277 1 -2303 18 -15
9 -35 29 -44 44 -17 26 -18 118 -21 1630 l-2 1603 2370 0 2370 0 -2 -1603z"/>
<path d="M470 3690 c-20 -20 -20 -33 -20 -810 0 -777 0 -790 20 -810 20 -20
33 -20 2090 -20 2057 0 2070 0 2090 20 20 20 20 33 20 810 0 777 0 790 -20
810 -20 20 -33 20 -2090 20 -2057 0 -2070 0 -2090 -20z m4140 -810 l0 -770
-2050 0 -2050 0 0 770 0 770 2050 0 2050 0 0 -770z"/>
<path d="M1757 3216 c-76 -27 -144 -97 -172 -175 -22 -63 -22 -448 0 -477 15
-19 15 -19 30 0 12 15 15 50 15 153 l0 133 210 0 210 0 0 -133 c0 -103 3 -138
15 -153 15 -19 15 -19 30 0 12 16 15 58 15 226 0 248 -7 279 -84 356 -77 77
-177 103 -269 70z m230 -66 c48 -29 63 -67 63 -160 l0 -80 -210 0 -210 0 0 80
c0 93 15 131 63 160 27 17 51 20 147 20 96 0 120 -3 147 -20z"/>
<path d="M2315 3205 l-25 -24 0 -301 0 -301 25 -24 c23 -24 29 -25 153 -25
162 0 207 14 278 84 69 70 84 117 84 266 0 149 -15 196 -84 266 -71 70 -116
84 -278 84 -124 0 -130 -1 -153 -25z m386 -50 c16 -9 39 -30 49 -48 18 -29 20
-51 20 -225 0 -214 -5 -237 -63 -272 -28 -18 -51 -20 -194 -20 l-163 0 0 290
0 290 160 0 c126 0 168 -3 191 -15z"/>
<path d="M3142 3204 c-56 -28 -92 -67 -117 -128 -16 -37 -15 -40 10 -91 49
-101 119 -135 274 -135 61 0 121 -5 134 -11 34 -15 47 -49 47 -119 0 -70 -13
-104 -47 -119 -15 -7 -93 -11 -202 -11 -142 0 -181 -3 -197 -15 -19 -15 -19
-15 0 -30 31 -24 307 -21 361 4 53 23 104 75 127 128 17 38 17 45 4 78 -25 59
-65 103 -119 130 -45 22 -63 25 -163 25 -62 0 -124 5 -137 11 -34 15 -47 49
-47 119 0 70 13 104 47 119 15 7 93 11 202 11 142 0 181 3 197 15 19 15 19 15
0 30 -16 12 -52 15 -171 15 -143 0 -154 -1 -203 -26z"/>
<path d="M470 1850 c-19 -19 -20 -33 -20 -210 0 -177 1 -191 20 -210 20 -20
33 -20 1050 -20 1017 0 1030 0 1050 20 19 19 20 33 20 210 0 177 -1 191 -20
210 -20 20 -33 20 -1050 20 -1017 0 -1030 0 -1050 -20z m2060 -210 l0 -170
-1010 0 -1010 0 0 170 0 170 1010 0 1010 0 0 -170z"/>
<path d="M2874 1695 c-19 -15 -19 -15 0 -30 17 -13 131 -15 886 -15 755 0 869
2 886 15 19 15 19 15 0 30 -17 13 -131 15 -886 15 -755 0 -869 -2 -886 -15z"/>
<path d="M2874 1455 c-19 -15 -19 -15 0 -30 17 -13 131 -15 886 -15 755 0 869
2 886 15 19 15 19 15 0 30 -17 13 -131 15 -886 15 -755 0 -869 -2 -886 -15z"/>
<path d="M474 1215 c-19 -15 -19 -15 0 -30 17 -13 149 -15 1046 -15 897 0
1029 2 1046 15 19 15 19 15 0 30 -17 13 -149 15 -1046 15 -897 0 -1029 -2
-1046 -15z"/>
<path d="M2874 1215 c-19 -15 -19 -15 0 -30 17 -13 131 -15 886 -15 755 0 869
2 886 15 19 15 19 15 0 30 -17 13 -131 15 -886 15 -755 0 -869 -2 -886 -15z"/>
<path d="M474 975 c-19 -15 -19 -15 0 -30 17 -13 87 -15 486 -15 399 0 469 2
486 15 19 15 19 15 0 30 -30 23 -942 23 -972 0z"/>
<path d="M2874 975 c-19 -15 -19 -15 0 -30 17 -13 69 -15 326 -15 257 0 309 2
326 15 19 15 19 15 0 30 -17 13 -69 15 -326 15 -257 0 -309 -2 -326 -15z"/>
</g>
</svg>
