<?xml version="1.0" standalone="no"?>
<!DOCTYPE svg PUBLIC "-//W3C//DTD SVG 20010904//EN"
 "http://www.w3.org/TR/2001/REC-SVG-20010904/DTD/svg10.dtd">
<svg version="1.0" xmlns="http://www.w3.org/2000/svg"
 width="512.000000pt" height="512.000000pt" viewBox="0 0 512.000000 512.000000"
 preserveAspectRatio="xMidYMid meet">
<metadata>
Created by potrace 1.16, written by Peter Selinger 2001-2019
</metadata>
<g transform="translate(0.000000,512.000000) scale(0.100000,-0.100000)"
fill="#00cd00" stroke="none">
<path d="M191 4684 c-56 -28 -101 -80 -123 -142 -10 -30 -13 -326 -13 -1512
l0 -1475 24 -47 c12 -26 39 -62 59 -79 77 -68 8 -63 1068 -69 l960 -5 -70
-251 -71 -252 -140 -4 c-156 -5 -197 -17 -253 -71 -60 -57 -76 -100 -80 -218
-6 -156 -14 -149 174 -149 154 0 154 0 166 25 9 19 8 29 -6 50 -16 24 -20 25
-121 25 l-105 0 0 64 c0 74 25 121 80 148 32 17 93 18 820 18 727 0 788 -1
820 -18 55 -27 80 -74 80 -148 l0 -64 -620 0 -620 0 -16 -25 c-14 -21 -15 -31
-6 -50 l12 -25 669 0 670 0 12 21 c7 14 10 60 7 128 -4 118 -20 161 -80 218
-56 54 -97 66 -253 71 l-140 4 -71 252 -70 251 960 5 c1060 6 991 1 1068 69
20 17 47 53 59 79 l24 47 0 453 c0 438 -1 454 -19 468 -20 14 -50 11 -73 -8
-10 -8 -13 -109 -13 -441 0 -417 -1 -432 -21 -474 -14 -30 -33 -50 -60 -63
-38 -20 -71 -20 -2320 -20 l-2281 0 -39 22 c-25 14 -46 37 -59 63 -20 41 -20
57 -18 1498 3 1452 3 1456 24 1483 11 15 33 37 48 48 l27 21 2299 0 2299 0 27
-21 c15 -11 37 -33 48 -48 21 -27 21 -37 24 -874 2 -776 4 -847 19 -864 23
-26 64 -19 80 12 10 20 13 198 11 865 -3 781 -4 843 -21 879 -29 65 -63 102
-119 130 l-52 26 -2316 0 -2316 0 -53 -26z m2653 -3341 c32 -105 136 -481 136
-490 0 -10 -87 -13 -420 -13 -333 0 -420 3 -420 13 0 9 104 385 136 490 5 16
27 17 284 17 257 0 279 -1 284 -17z"/>
<path d="M392 4378 c-17 -17 -17 -659 0 -676 18 -18 53 -15 71 6 15 16 17 52
17 300 l0 282 2080 0 2080 0 0 -1250 0 -1250 -2080 0 -2080 0 0 783 c0 747 -1
785 -18 800 -22 20 -53 22 -70 5 -9 -9 -12 -209 -12 -839 l0 -828 22 -15 c20
-14 241 -16 2158 -16 1917 0 2138 2 2158 16 l22 15 0 1328 c0 1019 -3 1330
-12 1339 -17 17 -4319 17 -4336 0z"/>
<path d="M1615 4029 l-79 -39 -167 0 c-156 0 -168 -1 -200 -23 -62 -41 -69
-68 -69 -284 0 -215 8 -271 50 -337 l29 -45 -37 -7 c-109 -19 -222 -114 -261
-219 -19 -50 -21 -78 -21 -265 0 -197 1 -210 19 -220 32 -17 51 -12 69 20 l17
30 448 0 c368 0 447 -2 447 -13 0 -18 32 -47 52 -47 8 0 23 9 32 19 16 17 17
41 14 228 -3 200 -4 210 -29 264 -49 103 -132 172 -242 200 -43 10 -46 13 -34
28 8 9 25 36 38 61 20 39 24 63 27 173 4 122 6 131 34 177 44 72 57 159 34
244 -30 110 -47 116 -171 55z m5 -461 c0 -111 -13 -151 -64 -203 -97 -96 -253
-76 -322 41 -23 39 -28 61 -32 145 l-5 99 212 0 211 0 0 -82z"/>
<path d="M3136 4020 c-355 -56 -648 -285 -777 -606 -154 -384 -65 -806 229
-1086 128 -122 274 -204 442 -249 72 -20 110 -23 245 -23 138 -1 172 3 245 23
178 49 325 134 451 260 124 124 214 279 261 448 19 67 22 103 22 253 0 149 -4
187 -22 255 -46 165 -165 363 -285 471 -121 110 -284 196 -439 234 -96 24
-285 33 -372 20z m850 -452 c25 -35 60 -90 76 -123 30 -58 71 -166 66 -171 -4
-3 -669 -144 -682 -144 -6 0 102 113 239 250 137 138 251 250 252 250 2 0 24
-28 49 -62z m170 -424 c11 -42 -3 -254 -21 -324 -39 -153 -167 -362 -276 -450
-71 -58 -153 -110 -161 -102 -12 12 -347 727 -342 731 4 4 757 168 781 170 7
1 16 -11 19 -25z m-707 -600 c83 -177 151 -324 151 -327 0 -13 -140 -48 -233
-59 -74 -8 -122 -8 -191 0 -96 12 -221 45 -231 62 -5 9 20 64 235 505 88 180
93 188 105 165 7 -14 81 -170 164 -346z"/>
<path d="M872 2418 c-19 -19 -15 -66 7 -78 13 -6 199 -10 534 -10 504 0 514 0
532 20 15 16 17 26 9 48 l-9 27 -531 3 c-404 2 -533 -1 -542 -10z"/>
<path d="M872 2188 c-19 -19 -15 -66 7 -78 13 -6 199 -10 534 -10 504 0 514 0
532 20 15 16 17 26 9 48 l-9 27 -531 3 c-404 2 -533 -1 -542 -10z"/>
</g>
</svg>
