<?xml version="1.0" standalone="no"?>
<!DOCTYPE svg PUBLIC "-//W3C//DTD SVG 20010904//EN"
 "http://www.w3.org/TR/2001/REC-SVG-20010904/DTD/svg10.dtd">
<svg version="1.0" xmlns="http://www.w3.org/2000/svg"
 width="512.000000pt" height="512.000000pt" viewBox="0 0 512.000000 512.000000"
 preserveAspectRatio="xMidYMid meet">
<metadata>
Created by potrace 1.16, written by Peter Selinger 2001-2019
</metadata>
<g transform="translate(0.000000,512.000000) scale(0.100000,-0.100000)"
fill="#00cd00" stroke="none">
<path d="M745 5019 c-310 -76 -570 -338 -645 -649 -25 -106 -27 -287 -4 -398
33 -163 124 -326 250 -448 l73 -72 -31 -28 c-48 -45 -95 -125 -123 -207 -25
-75 -25 -79 -25 -410 0 -302 2 -341 20 -413 55 -213 191 -391 379 -495 l80
-44 0 -105 0 -105 -56 -34 c-139 -85 -301 -281 -362 -440 -57 -149 -61 -189
-61 -661 l0 -431 973 3 972 3 80 31 c124 49 717 322 747 344 25 18 43 20 220
20 165 0 199 3 233 19 41 18 98 75 117 117 l11 24 636 0 c598 0 638 2 676 19
87 40 135 120 135 223 0 74 -23 129 -71 175 -64 60 -81 63 -374 63 -299 0
-324 4 -344 60 -6 18 -11 48 -11 66 l0 33 258 3 257 3 60 29 c77 38 153 114
191 191 l29 60 0 1155 0 1155 -27 55 c-52 104 -128 174 -231 210 l-52 18 -13
69 c-56 307 -253 554 -534 671 -213 89 -495 84 -702 -12 -277 -128 -470 -383
-512 -678 l-6 -48 -559 0 -559 0 0 63 c0 147 -79 352 -190 491 -115 145 -300
263 -480 306 -115 27 -311 27 -425 -1z m317 -154 c137 -13 306 -102 415 -219
126 -134 184 -272 191 -453 5 -142 -14 -232 -74 -352 -48 -97 -143 -208 -220
-260 l-45 -30 -47 22 c-44 20 -65 22 -312 25 -243 3 -270 1 -330 -17 l-65 -20
-38 26 c-120 83 -238 265 -272 418 -26 113 -17 275 19 380 71 206 234 372 438
446 77 29 202 49 258 43 14 -2 51 -6 82 -9z m2880 -80 c32 -3 94 -18 138 -34
202 -74 364 -239 437 -446 26 -74 28 -91 28 -225 0 -132 -2 -152 -27 -221 -40
-112 -92 -195 -177 -280 -157 -157 -356 -229 -574 -208 -267 26 -508 217 -601
478 -29 81 -31 94 -31 231 0 134 2 151 28 225 74 208 235 372 439 446 77 29
202 49 258 43 14 -2 51 -6 82 -9z m-977 -837 c9 -68 50 -199 83 -263 120 -239
350 -417 604 -469 99 -21 277 -21 376 0 351 72 624 361 686 727 7 37 7 37 34
23 39 -21 88 -75 109 -121 17 -37 18 -97 21 -902 l3 -863 -1648 0 -1648 0 3
82 c1 46 -10 208 -26 361 l-28 277 103 0 c117 0 158 12 212 63 48 46 71 101
71 175 0 73 -19 124 -63 170 -55 58 -80 66 -216 72 l-123 5 -15 44 c-8 25 -22
56 -31 69 -15 23 -15 25 29 60 165 133 265 289 319 500 l11 42 563 0 564 0 7
-52z m-1760 -532 c46 -20 100 -68 121 -108 l15 -28 -91 0 c-154 0 -204 -36
-290 -210 l-54 -110 -253 0 -253 0 0 28 c1 64 22 170 45 219 31 69 120 157
189 189 77 35 146 43 351 40 145 -2 188 -6 220 -20z m500 -310 c37 -16 52 -48
41 -92 -13 -49 -47 -54 -361 -54 -157 0 -285 2 -285 5 0 13 60 122 72 132 23
19 47 21 276 22 173 1 230 -2 257 -13z m-1122 -367 c-22 -53 -24 -74 -21 -153
4 -111 30 -174 106 -257 l52 -57 0 -111 0 -112 -44 30 c-62 43 -134 117 -173
179 -72 113 -102 246 -103 455 l0 87 104 0 104 0 -25 -61z m781 29 c11 -66 56
-546 56 -595 0 -35 -7 -60 -22 -83 -50 -72 -98 -89 -255 -90 l-103 0 0 -80 0
-80 80 0 80 0 0 -40 0 -40 -72 0 c-64 0 -151 -14 -225 -36 l-23 -6 0 324 0
324 -56 54 c-70 69 -94 115 -94 180 0 61 18 101 73 158 l41 42 258 0 257 0 5
-32z m3514 -990 c-4 -116 -8 -151 -25 -188 -25 -54 -73 -102 -128 -127 -38
-17 -116 -18 -1438 -21 l-1398 -2 -62 60 c-107 106 -249 189 -394 228 l-68 19
-3 51 -3 51 50 25 c27 14 52 30 56 36 4 7 564 10 1712 10 l1706 0 -5 -142z
m-3532 -204 c138 -29 290 -118 395 -232 129 -141 175 -252 214 -519 14 -98 28
-187 30 -198 3 -16 -5 -24 -38 -38 -72 -30 -71 -26 -33 -110 33 -71 37 -76 58
-68 13 5 117 52 232 105 116 53 213 96 216 96 7 0 92 -191 88 -195 -11 -11
-300 -138 -341 -150 -29 -9 -88 -16 -132 -16 -131 0 -242 43 -336 129 -86 79
-115 139 -190 386 -37 121 -71 221 -75 221 -21 0 -145 -39 -150 -46 -10 -16
116 -414 156 -496 24 -49 63 -107 97 -143 l55 -60 -597 0 -597 0 4 338 c5 375
12 426 74 560 102 224 302 387 534 436 124 26 211 26 336 0z m1132 -521 l-3
-226 -160 -73 c-88 -39 -161 -71 -163 -69 -2 1 -14 79 -28 171 -28 188 -52
281 -95 367 l-29 57 240 0 240 0 -2 -227z m802 147 l0 -80 -159 0 c-130 0
-171 -4 -222 -20 -76 -23 -169 -77 -221 -128 l-38 -36 0 172 0 172 320 0 320
0 0 -80z m800 8 c0 -85 20 -137 71 -185 64 -60 81 -63 374 -63 292 0 329 -6
341 -54 11 -44 -4 -76 -41 -92 -29 -12 -130 -14 -631 -12 l-595 3 -18 52 c-19
56 -89 156 -121 173 -18 10 -20 21 -20 130 l0 120 320 0 320 0 0 -72z m-794
-273 c80 -33 143 -120 144 -198 0 -81 -32 -97 -196 -97 l-114 0 0 58 c0 39 -8
73 -24 107 -22 49 -94 125 -118 125 -8 0 -8 3 -2 9 25 25 248 22 310 -4z
m-365 -174 c41 -41 41 -108 2 -146 -33 -32 -243 -129 -254 -118 -4 5 -26 49
-48 98 l-40 90 27 13 c15 6 65 30 112 51 109 51 159 54 201 12z"/>
<path d="M909 4443 l-126 -378 -44 88 -43 87 -148 0 -148 0 0 -80 0 -80 93 0
92 0 113 -226 c62 -125 117 -223 121 -218 5 5 55 150 112 322 57 171 106 312
109 312 3 0 26 -61 50 -135 l44 -135 193 0 193 0 0 80 0 80 -128 0 -127 0
-110 330 c-60 182 -112 330 -115 330 -3 0 -62 -170 -131 -377z"/>
<path d="M3360 4400 l0 -80 80 0 80 0 0 80 0 80 -80 0 -80 0 0 -80z"/>
<path d="M3680 4400 l0 -80 320 0 320 0 0 80 0 80 -320 0 -320 0 0 -80z"/>
<path d="M3360 4080 l0 -80 80 0 80 0 0 80 0 80 -80 0 -80 0 0 -80z"/>
<path d="M3680 4080 l0 -80 320 0 320 0 0 80 0 80 -320 0 -320 0 0 -80z"/>
<path d="M3360 3760 l0 -80 80 0 80 0 0 80 0 80 -80 0 -80 0 0 -80z"/>
<path d="M3680 3760 l0 -80 320 0 320 0 0 80 0 80 -320 0 -320 0 0 -80z"/>
<path d="M2080 3760 l0 -80 400 0 400 0 0 80 0 80 -400 0 -400 0 0 -80z"/>
<path d="M2080 3440 l0 -80 400 0 400 0 0 80 0 80 -400 0 -400 0 0 -80z"/>
<path d="M2080 3120 l0 -80 400 0 400 0 0 80 0 80 -400 0 -400 0 0 -80z"/>
<path d="M3040 2960 l0 -80 840 0 840 0 0 80 0 80 -840 0 -840 0 0 -80z"/>
<path d="M2080 2560 l0 -320 400 0 400 0 0 320 0 320 -400 0 -400 0 0 -320z
m640 0 l0 -160 -240 0 -240 0 0 160 0 160 240 0 240 0 0 -160z"/>
<path d="M3040 2640 l0 -80 840 0 840 0 0 80 0 80 -840 0 -840 0 0 -80z"/>
<path d="M3040 2320 l0 -80 80 0 80 0 0 80 0 80 -80 0 -80 0 0 -80z"/>
<path d="M3360 2320 l0 -80 680 0 680 0 0 80 0 80 -680 0 -680 0 0 -80z"/>
<path d="M3920 1680 l0 -80 80 0 80 0 0 80 0 80 -80 0 -80 0 0 -80z"/>
<path d="M4240 1680 l0 -80 80 0 80 0 0 80 0 80 -80 0 -80 0 0 -80z"/>
<path d="M4560 1680 l0 -80 80 0 80 0 0 80 0 80 -80 0 -80 0 0 -80z"/>
</g>
</svg>
