<?xml version="1.0" standalone="no"?>
<!DOCTYPE svg PUBLIC "-//W3C//DTD SVG 20010904//EN"
 "http://www.w3.org/TR/2001/REC-SVG-20010904/DTD/svg10.dtd">
<svg version="1.0" xmlns="http://www.w3.org/2000/svg"
 width="512.000000pt" height="512.000000pt" viewBox="0 0 512.000000 512.000000"
 preserveAspectRatio="xMidYMid meet">
<metadata>
Created by potrace 1.16, written by Peter Selinger 2001-2019
</metadata>
<g transform="translate(0.000000,512.000000) scale(0.100000,-0.100000)"
fill="#0fcf10" stroke="none">
<path d="M2289 5105 c-273 -44 -546 -155 -769 -313 -112 -79 -316 -278 -384
-374 l-47 -67 -452 -3 c-413 -3 -455 -5 -488 -21 -50 -25 -108 -84 -130 -132
-18 -38 -19 -106 -19 -1670 l0 -1630 24 -50 c25 -55 76 -105 134 -133 34 -16
103 -17 905 -20 l867 -3 0 -153 0 -154 -157 -5 c-185 -5 -229 -17 -302 -83
-105 -95 -119 -207 -35 -273 l27 -21 1098 0 1099 0 36 33 c31 28 37 42 42 85
4 42 0 58 -22 96 -34 58 -106 120 -164 142 -34 12 -92 18 -204 21 l-158 5 0
154 0 153 868 3 867 3 47 24 c55 27 103 77 129 135 18 39 19 108 19 1670 0
1614 0 1630 -20 1671 -25 51 -80 108 -129 132 -33 16 -77 18 -488 23 l-451 5
-53 70 c-28 39 -106 124 -173 190 -242 241 -550 405 -894 477 -128 26 -494 34
-623 13z m211 -521 l0 -416 -92 7 c-220 15 -556 70 -581 95 -18 16 97 253 185
382 70 102 200 231 280 276 63 37 151 70 186 71 l22 1 0 -416z m242 386 c180
-67 349 -250 479 -515 91 -187 91 -184 4 -206 -129 -34 -471 -79 -591 -79 -12
0 -14 73 -14 416 l0 417 33 -6 c17 -3 58 -15 89 -27z m-711 -106 c-39 -42 -96
-113 -125 -158 -59 -89 -153 -271 -182 -353 l-18 -51 -71 25 c-90 32 -295 130
-295 142 0 14 146 148 229 210 84 62 213 139 289 173 79 35 216 87 230 88 8 0
-18 -34 -57 -76z m1144 25 c127 -51 237 -111 349 -191 90 -63 256 -212 256
-229 0 -12 -204 -110 -297 -142 l-71 -26 -7 27 c-13 53 -133 290 -190 376 -32
48 -91 122 -129 164 -83 88 -80 88 89 21z m859 -779 c88 -171 145 -345 169
-512 l6 -38 -325 0 -324 0 0 41 c0 73 -41 330 -74 460 l-31 126 130 52 c71 28
164 71 205 94 l75 43 52 -70 c29 -39 81 -127 117 -196z m-2682 211 c51 -26
143 -67 203 -91 l110 -42 -31 -127 c-33 -130 -74 -387 -74 -460 l0 -41 -324 0
-325 0 5 38 c20 141 87 348 159 492 51 101 166 280 180 280 3 0 46 -22 97 -49z
m-388 -187 c-66 -133 -116 -285 -145 -434 -12 -63 -23 -121 -25 -127 -2 -9
-28 -13 -84 -13 -111 0 -169 -31 -211 -113 -19 -36 -19 -59 -17 -460 l3 -423
27 -41 c17 -26 45 -50 79 -67 l53 -26 1916 0 1916 0 53 26 c34 17 62 41 79 67
l27 41 3 423 c2 376 1 426 -14 455 -43 86 -101 118 -213 118 -75 0 -81 1 -85
23 -3 12 -13 63 -21 112 -23 126 -85 311 -148 438 l-53 107 376 0 c215 0 390
-4 410 -10 41 -11 94 -61 109 -103 8 -19 11 -428 11 -1303 l0 -1274 -2450 0
-2450 0 0 1275 c0 1061 2 1281 14 1308 17 41 65 85 102 97 16 4 200 9 410 9
l381 1 -53 -106z m987 -18 c153 -32 356 -56 466 -56 l83 0 0 -250 0 -250 -414
0 -413 0 4 53 c13 147 78 494 100 530 3 5 15 7 27 4 11 -2 78 -16 147 -31z
m1398 11 c27 -70 72 -316 95 -519 l6 -48 -415 0 -415 0 0 249 0 248 133 6
c150 6 314 29 455 62 126 29 131 29 141 2z m1148 -710 l28 -27 3 -363 c2 -199
0 -376 -3 -393 -3 -18 -17 -44 -32 -58 l-26 -26 -1907 0 -1907 0 -26 26 c-15
14 -29 40 -32 58 -3 17 -5 194 -3 392 3 346 4 363 23 384 11 12 29 26 40 31
11 4 874 7 1917 6 l1898 -2 27 -28z m513 -2225 c0 -237 -1 -250 -22 -292 -13
-24 -36 -53 -51 -64 l-28 -21 -2349 0 -2349 0 -28 21 c-15 11 -38 40 -50 64
-22 42 -23 55 -23 292 l0 248 2450 0 2450 0 0 -248z m-1940 -657 l0 -155 -510
0 -510 0 0 155 0 155 510 0 510 0 0 -155z m425 -286 c48 -13 128 -89 123 -116
-3 -17 -51 -18 -1058 -18 -989 0 -1055 1 -1058 17 -5 25 67 97 113 113 33 12
190 14 940 15 630 0 912 -3 940 -11z"/>
<path d="M1257 3252 c-10 -10 -17 -27 -16 -38 0 -10 37 -120 83 -244 72 -197
86 -227 110 -238 46 -23 66 1 141 168 38 83 71 153 75 155 4 2 39 -67 78 -153
54 -122 76 -160 97 -170 22 -12 30 -11 50 2 19 13 38 59 95 235 38 120 70 233
70 250 0 39 -36 60 -77 45 -24 -8 -32 -25 -76 -163 l-49 -154 -65 144 c-36 79
-72 152 -81 162 -8 9 -28 17 -44 17 -35 0 -44 -14 -123 -189 -33 -72 -62 -128
-66 -123 -4 4 -29 66 -54 137 -26 72 -53 140 -61 153 -18 27 -64 30 -87 4z"/>
<path d="M2176 3254 c-9 -8 -16 -26 -16 -39 0 -41 158 -459 181 -478 22 -18
54 -15 75 7 7 6 42 80 80 164 38 83 71 152 74 152 3 0 36 -71 75 -156 81 -181
105 -208 154 -166 14 11 43 88 91 238 38 122 70 231 70 241 0 43 -72 71 -100
39 -6 -8 -33 -81 -58 -162 l-47 -148 -69 153 c-68 148 -84 171 -124 171 -29 0
-45 -24 -112 -173 -35 -76 -66 -140 -70 -142 -4 -3 -31 62 -60 143 -28 81 -59
153 -68 160 -22 17 -57 15 -76 -4z"/>
<path d="M3096 3257 c-10 -8 -18 -25 -18 -40 0 -14 37 -128 82 -253 69 -188
87 -227 107 -235 50 -19 65 0 144 175 l76 165 71 -157 c76 -170 100 -200 143
-183 31 11 30 10 115 278 66 206 67 212 50 237 -20 31 -65 35 -88 9 -8 -10
-35 -80 -58 -155 -24 -76 -46 -138 -49 -138 -3 0 -35 64 -70 141 -35 77 -70
147 -78 155 -19 18 -58 18 -76 0 -8 -8 -45 -82 -83 -165 -37 -82 -69 -149 -70
-148 -1 1 -25 67 -54 147 -29 80 -59 153 -68 163 -18 20 -51 22 -76 4z"/>
</g>
</svg>
